<svg id="Layer_1" data-name="Layer 1" xmlns="http://www.w3.org/2000/svg" viewBox="0 0 106.22 100.92"><defs><style>.cls-1{fill:#daf0f4;}.cls-2{fill:#fedbb3;}.cls-3{fill:#e5c4a5;}.cls-4{fill:#f8e2cd;}.cls-5{fill:#d3bfae;}</style></defs><title>milk</title><circle class="cls-1" cx="53.36" cy="50.46" r="38.1"/><path class="cls-2" d="M46.34,54.16c.32-1.47,2.47-1.91,3.66-1a4.4,4.4,0,0,1,1.3,4.12,8.16,8.16,0,0,1-5.56,6.56,11.6,11.6,0,0,1-6.29-.1,16.25,16.25,0,0,1-8.42-5,11.33,11.33,0,0,1-2.71-9.23,6.23,6.23,0,0,1,3.42-4.79c1.89-.77,4.49.21,4.9,2.21.14.66,0,1.34.13,2,.24,2,2.13,3.61,4.13,4.12a15.65,15.65,0,0,0,6.17-.1"/><path class="cls-3" d="M47,57a2,2,0,0,0-3.3,0,3.94,3.94,0,0,0-.07,3.8,7.41,7.41,0,0,0,6.27,4.34,9.69,9.69,0,0,0,5.22-1.5A13.64,13.64,0,0,0,61,57.44a10.13,10.13,0,0,0,0-8.48,5.68,5.68,0,0,0-4-3.32c-1.77-.22-3.69,1.2-3.54,3,0,.59.29,1.15.39,1.74a4.52,4.52,0,0,1-2.43,4.44,13.2,13.2,0,0,1-5.17,1.3"/><path class="cls-2" d="M69.89,50c-.8-1.28.43-3.09,1.92-3.27a4.42,4.42,0,0,1,3.81,2,8.18,8.18,0,0,1,.62,8.58,11.62,11.62,0,0,1-4.57,4.33A16.31,16.31,0,0,1,62.16,64a11.41,11.41,0,0,1-8.4-4.71,6.25,6.25,0,0,1-.9-5.82c.82-1.87,3.36-3,5.06-1.84.55.37,1,.92,1.48,1.34C61,54.25,63.45,54,65.25,53a15.61,15.61,0,0,0,4.33-4.39"/><path class="cls-2" d="M59.58,55.71a9.42,9.42,0,0,0,11.7-3.46c.2-.29-.53-.24-.67,0a8.34,8.34,0,0,1-10.45,3.12c-.23-.09-.89.24-.58.37Z"/><path class="cls-4" d="M34.29,48.16a7.45,7.45,0,0,0,.17,2.74c.07.27.7.09.73-.14a7,7,0,0,0,0-2.38c-.07-.31-.76-2.6-.79-1.18,0,1.65,1.5,3.68,2.54,4.82.15.16.8,0,.7-.25s-.13-.39-.57-.47c-.16,0-.73.09-.55.36a8.6,8.6,0,0,0,2.19,2.23l.5-.4-1.56-.32-.44.42,4.83.92.35-.43-1.29,0c-.16,0-.72.2-.42.41l.4.65c0,.32.69.2.72-.08.07-.5-.13-.65-.55-.94l-.42.41,1.29,0c.19,0,.78-.36.35-.44l-4.82-.92c-.26-.05-.86.33-.44.42l1.57.33c.17,0,.82-.17.5-.4a8.37,8.37,0,0,1-2.09-2.15l-.55.36.28.24.69-.25A10,10,0,0,1,35,46.15c0-.09-.16-.12-.23-.12a1.71,1.71,0,0,0-1,.13c-.13.05-.27.18-.19.32a6.35,6.35,0,0,1,.89,4.36l.73-.14A7.22,7.22,0,0,1,35,48.08c0-.32-.69-.2-.72.08Z"/><path class="cls-5" d="M46.14,56.71a9.61,9.61,0,0,0,5.25-1.17c.3-.16-.42-.07-.55,0a7.67,7.67,0,0,1-4.22.9c-.15,0-.82.25-.48.27Z"/></svg>