<svg id="Layer_1" data-name="Layer 1" xmlns="http://www.w3.org/2000/svg" viewBox="0 0 106.22 100.92"><defs><style>.cls-1{fill:#efd9ab;}.cls-2{fill:#ccb9a3;}.cls-3{fill:#f8d3c7;}.cls-4{fill:#937160;}.cls-5{fill:#a3754b;}.cls-6{fill:#966d49;}.cls-7{fill:#412b15;}</style></defs><title>milk</title><ellipse class="cls-1" cx="54.14" cy="50.91" rx="7.74" ry="10.84"/><ellipse class="cls-1" cx="54.14" cy="50.91" rx="7.74" ry="10.84" transform="translate(-20.18 50.37) rotate(-42.82)"/><circle class="cls-2" cx="54.14" cy="50.91" r="1.21"/><ellipse class="cls-2" cx="54.14" cy="50.91" rx="0.75" ry="0.66"/><circle class="cls-3" cx="54.14" cy="50.91" r="38.1"/><circle class="cls-4" cx="53.83" cy="51.18" r="21.56"/><path class="cls-5" d="M73.08,51.45a1.35,1.35,0,0,0-.11-.79c-.08-.16-.78.1-.73.2a1.17,1.17,0,0,1,.11.78c0,.06.69,0,.73-.19Z"/><path class="cls-6" d="M60.13,70A24.16,24.16,0,0,0,75.8,51.16c.06-.33-.68-.22-.73.07A23.51,23.51,0,0,1,59.82,69.65c-.47.17,0,.51.31.38Z"/><path class="cls-6" d="M60.67,68.15c9.64-3.84,11.81-18,12.55-26.81,0-.31-.7-.18-.72.09-.73,8.67-2.71,22.65-12.13,26.39-.47.19,0,.46.3.33Z"/><path class="cls-6" d="M71.45,56.36c1.24-.63,1.33-3.34,1.62-4.53a28.62,28.62,0,0,0,.84-9c0-.33-.75-.16-.72.2a25.46,25.46,0,0,1-.43,6.86c-.17.93-.74,5.56-1.63,6-.44.23,0,.63.32.44Z"/><path class="cls-6" d="M59.88,67.59c4.32-1.92,5.14-7.2,6.92-11.16a33.11,33.11,0,0,0,2.26-18.82c0-.12-.75,0-.72.2C69.15,43.19,69,49.3,67,54.43c-1.56,4.06-3.32,11.21-7.56,13.09-.43.19.25.14.41.07Z"/><path class="cls-6" d="M57.6,69.27a56.52,56.52,0,0,0,8.09-18c1.14-4.68,3-11.45-.07-15.72-.18-.25-.88,0-.67.3,3.17,4.38.93,12.39-.43,17.16a57.39,57.39,0,0,1-7.6,16.24c-.21.32.52.3.68.06Z"/><path class="cls-6" d="M55.33,71c2.22-1.49,2.77-3.33,3.7-5.8,1.3-3.47,2.93-6.83,4-10.39a30.68,30.68,0,0,0-.84-20c-.09-.21-.8,0-.73.19a30.06,30.06,0,0,1,1.26,18.37,52,52,0,0,1-2.79,7.95C58.6,64.41,57.72,69,54.76,71c-.31.21.41.17.57.06Z"/><path class="cls-6" d="M60.21,60a95.79,95.79,0,0,0,1.14-16.31C61.15,38,58.71,34.51,55,30.45c-.2-.21-.89.07-.67.3,4.16,4.51,6.34,8.51,6.33,14.78a108.9,108.9,0,0,1-1.15,14.54c0,.33.69.21.73-.07Z"/><path class="cls-6" d="M56,67.59A24.53,24.53,0,0,0,58.81,54C58.49,48.92,57.74,42.5,55,38.14c-.12-.19-.79.08-.72.19,2.47,4,3.17,9.52,3.65,14.1.57,5.33,0,10.53-2.62,15.28-.06.11.62.07.72-.12Z"/><path class="cls-6" d="M53.64,68.31c3.64-10.81,5.22-20.74-.23-31.11-.14-.26-.84,0-.72.2,2.73,5.2,4.2,9.71,3.68,15.69a66.39,66.39,0,0,1-3.46,15.3c-.09.28.64.19.73-.08Z"/><path class="cls-6" d="M52.57,70.24c.62-7.52,3.78-14.85,3.32-22.46-.4-6.79-4.67-10.65-7.46-16.47-.14-.29-.85-.07-.72.2,3,6.2,7.52,10.6,7.49,18,0,7.06-2.78,13.82-3.36,20.84,0,.34.71.23.73-.07Z"/><path class="cls-6" d="M59.64,58.34c-.07-3.06.29-6.28-.49-9.27-.7-2.69-2.43-4.66-4.28-6.63-.15-.16-.83.1-.68.26,2.1,2.23,3.88,4.46,4.44,7.55.49,2.72.22,5.54.29,8.29,0,.17.73,0,.72-.2Z"/><path class="cls-6" d="M52.25,70.58c-7.9-6.19-13.48-17.37-13.58-27.52,0-.11-.73,0-.73.19A37.42,37.42,0,0,0,51.56,70.83c.15.12.78-.17.69-.25Z"/><path class="cls-6" d="M51.21,69.83c-4.26-.34-10.2-6-12-9.29a34.09,34.09,0,0,1-3.94-13.29c0-.24-.75-.08-.72.19.54,5.44,2,11.56,5.56,15.91,1.8,2.21,4.74,3.86,7.06,5.39a7,7,0,0,0,3.8,1.5c.28,0,.77-.37.28-.41Z"/><path class="cls-6" d="M45.7,67c-5.79-4.89-10.22-14.57-11.06-22,0-.18-.75,0-.72.19.84,7.53,5.21,17.13,11.1,22.1.16.14.82-.14.68-.26Z"/><path class="cls-6" d="M50,71.24c-6.24-.85-13.41-7.76-14.7-13.95,0-.25-.78-.07-.73.2.77,3.69,3.38,6.62,6,9.21s5.38,4.45,9,4.93c.23,0,.85-.34.45-.39Z"/><path class="cls-6" d="M52.18,67.7c-7.59-6.7-13.08-18.06-14.53-28,0-.19-.76,0-.73.2,1.46,10,6.94,21.33,14.58,28.07.17.15.83-.12.68-.26Z"/><path class="cls-6" d="M52.76,65.73C46.08,61.41,44,48.66,42.7,41.41c0-.26-.77-.09-.72.2a78.27,78.27,0,0,0,4.47,16c1.34,3.3,2.66,6.47,5.74,8.46.21.14.88-.17.57-.36Z"/><path class="cls-6" d="M51.41,61.22c-7.27-8.42-6.3-20-9.4-30.07,0-.14-.77.06-.73.2,3.11,10.09,2.13,21.64,9.4,30.06.14.16.76-.15.73-.19Z"/><path class="cls-6" d="M52.42,63.23c-.18-4.87-.18-10.17-2.13-14.7A89.86,89.86,0,0,0,44.41,36.3c-.16-.25-.86,0-.67.3,2.09,3.31,3.3,7.13,5,10.64,2.51,5.11,2.71,10.4,2.91,16,0,.36.75.22.74-.06Z"/><path class="cls-6" d="M52.38,58.42c.72-8.72-.15-17.3-5.23-24.65-.19-.27-.88,0-.66.33,5,7.29,5.87,15.73,5.15,24.37,0,.38.71.29.74,0Z"/><circle class="cls-7" cx="48.38" cy="56.84" r="1.98"/><circle class="cls-7" cx="44.43" cy="50.91" r="1.98"/></svg>