<svg id="Layer_1" data-name="Layer 1" xmlns="http://www.w3.org/2000/svg" viewBox="0 0 106.22 100.92"><defs><style>.cls-1{fill:#fdf5ed;}.cls-2{fill:#937160;}.cls-3{fill:#a07d6d;}.cls-4{fill:#d1b68f;}</style></defs><title>milk</title><circle class="cls-1" cx="53.83" cy="47.85" r="38.1"/><path class="cls-2" d="M53.16,27.18c1.9.13,2.15,1.85,5.76,4.43,2.26,1.62,3.25,1.71,5.46,2.93.79.43,6.45,3.54,8.71,7.7,3,5.53.56,13.91-4.1,18.9C62.54,68,51.41,68.91,43.64,64.39c-1.09-.63-9.34-5.61-9.75-14.84a17.82,17.82,0,0,1,7-14.72c1.62-1.15,2.37-1.11,5.41-3.22C50.56,28.65,51.29,27.05,53.16,27.18Z"/><path class="cls-3" d="M66.92,61.79A30.49,30.49,0,0,0,68,48.35a17.7,17.7,0,0,0-5.29-10.72c-3.43-3.3-7.56-5.39-9.22-10.15.52,1.48-.52,3.51,0,5,1.66,4.77,5.77,6.83,9.22,10.15a18.18,18.18,0,0,1,5.4,12.15l0-3.76v1.43l0-1.23a21.75,21.75,0,0,1-1.21,5.57c-.54,1.49.52,3.54,0,5Z"/><path class="cls-3" d="M44.17,60.4c-3.23-6-5.55-12-.92-17.92,3.17-4,8.26-6,10-11.12.5-1.51-.51-3.52,0-5-1.44,4.26-5.14,6.31-8.24,9.27a15.73,15.73,0,0,0-4.89,11.14A33.77,33.77,0,0,0,44.17,65.4c-.69-1.28.7-3.7,0-5Z"/><path class="cls-3" d="M49.5,60.11c-2.8-9.35,2.86-15.89,4.28-24.84.26-1.63-.25-3.38,0-5C52.59,37.8,48.3,44.17,48.13,52A41.68,41.68,0,0,0,49.5,65.11c-.46-1.52.46-3.46,0-5Z"/><path class="cls-3" d="M63.18,63.45c2.53-12-6.33-21.36-9-32.54.37,1.57-.39,3.42,0,5a56.29,56.29,0,0,0,4.9,13.17c2,3.74,4.07,7.05,4.51,11.35V55.52l-.37,2.93c-.34,1.6.33,3.41,0,5Z"/><path class="cls-3" d="M56.29,66.62a51.79,51.79,0,0,0-.14-10.19c-1.15-9.1-2.62-17.85-3.07-27.07.06,1.19-.08,3.31,0,4.82.22,4.62.45,9.23.93,13.83.25,2.43.58,4.86,1,7.26.35,1.95,1.41,4.57,1.27,6.53-.11,1.49.09,3.64,0,4.82Z"/><path class="cls-4" d="M43.57,63.59a11.61,11.61,0,0,1,.15-3.33l3.63,4.07a7.73,7.73,0,0,0,1.73-3.13,7.75,7.75,0,0,0,1.09,2.52,1.83,1.83,0,0,0,1.17.93c.7.1,1.29-.5,1.65-1.11a4.13,4.13,0,0,1,1.24-1.68,24.11,24.11,0,0,0,2.25,4,24.64,24.64,0,0,0,1.81-5.48,3.45,3.45,0,0,0,6-1.21,2.49,2.49,0,0,0,3.2.22,2.83,2.83,0,0,1-.2,3,6.63,6.63,0,0,1-2.44,2,21.61,21.61,0,0,1-19.62.79c-1.45-.72-3-1.81-3.16-3.41"/></svg>