<svg id="Layer_1" data-name="Layer 1" xmlns="http://www.w3.org/2000/svg" viewBox="0 0 106.22 100.92"><defs><style>.cls-1{fill:#fbeac2;}.cls-2{fill:#91ba70;}</style></defs><title>milk</title><circle class="cls-1" cx="53.06" cy="50.46" r="38.1"/><path class="cls-2" d="M52.37,62.7a52.49,52.49,0,0,1-14,5.76,13.64,13.64,0,0,1,6.29-4.6A40.67,40.67,0,0,1,52.35,62a27.46,27.46,0,0,1-15.41-7.83,37.77,37.77,0,0,1-5.79-7.94c2.45,2.4,6.26,2.69,9.23,4.4,2.33,1.33,4,3.47,5.89,5.42a49.37,49.37,0,0,0,6.11,5.45,32.33,32.33,0,0,1-9.81-16.23c-.64-2.56-1-5.2-1.68-7.74a24.9,24.9,0,0,0-2.59-5.94c2.81,2.21,4.61,5.43,6.34,8.56,2.63,4.76,5.31,9.67,6,15.07.26,2.25.24,4.74,1.75,6.43-2.11-8.84-4.22-17.9-3.14-26.93.37-3.14,1-6.66-.82-9.21,3.17,4.21,6.46,8.7,7,14a29.29,29.29,0,0,1-.35,6.93l-2,15.29,3-14.18a52.1,52.1,0,0,1,2.69-9.61C60,35,61.7,32.3,62.5,29.28c-.51,2.19.4,4.43.82,6.64.89,4.77-.57,9.7-2.74,14s-5.07,8.28-7.34,12.57c3-4,6-8.12,10.19-10.93C66.84,49.3,70.87,48,74,45.29A33,33,0,0,1,53.07,61.56c1.55.62,3.29.14,4.93-.18,4.13-.8,8.94-.27,11.67,2.94-2.56-1.07-5.46-.1-8.23,0a13.64,13.64,0,0,1-8.68-2.63q.65,8,1.87,16"/></svg>