<svg id="Layer_1" data-name="Layer 1" xmlns="http://www.w3.org/2000/svg" xmlns:xlink="http://www.w3.org/1999/xlink" viewBox="0 0 198.54 122.85"><defs><style>.cls-1{fill:#efcad4;}.cls-2{clip-path:url(#clip-path);}.cls-3{fill:#fff;}</style><clipPath id="clip-path"><path class="cls-1" d="M111.16,78.27a1.6,1.6,0,0,0,.82-.82,4.22,4.22,0,0,0,.55-1.72c.29-1.64.16-.5.55-2.75.25-1.43.29-1.83.69-2.12a1.11,1.11,0,0,1,1.23-.14c.23.19.21.53.21.89a17.51,17.51,0,0,0,.34,2.27,7.36,7.36,0,0,0,1.79,3.43A9.61,9.61,0,0,0,120,79.92a9.27,9.27,0,0,0,4.19,1.34c.68.07.21,0,2.8-.09a2.29,2.29,0,0,0,1.53-.36s.66-.54.54-1-1.26-.52-2.54-1.1a7.37,7.37,0,0,1-2.6-2.26,13.67,13.67,0,0,1-2.34-4c-.48-1.17-.23-1-.72-2.16-.25-.61-.45-1-.31-1.38s.58-.57,1-.76a7.75,7.75,0,0,0,2.75-2.47,6.66,6.66,0,0,0,1.17-2.2,6.21,6.21,0,0,0,.13-2.95,4.52,4.52,0,0,0-1-2.26,4.4,4.4,0,0,0-3.91-1.37c-2.47.38-3.71,3-4.12,2.74s.21-1.38,1-3.22c.55-1.34,1-2.4,1.79-4.12a10.7,10.7,0,0,0,1.1-3,4.1,4.1,0,0,0-.69-3.3,3.28,3.28,0,0,0-1.92-1c-2.07-.28-3.62,1.75-3.91,2.13a12.32,12.32,0,0,0-1,1.92c-.37.76-.92,1.89-1.44,3.23a39.83,39.83,0,0,0-1.65,5.56A55.37,55.37,0,0,0,108.42,65c-.21,1.84,0,1-.28,7a17.09,17.09,0,0,0,.34,3.5,3.6,3.6,0,0,0,.83,2C109.39,77.61,110.31,78.55,111.16,78.27Z"/></clipPath></defs><title>milk</title><path class="cls-1" d="M111.16,78.27a1.6,1.6,0,0,0,.82-.82,4.22,4.22,0,0,0,.55-1.72c.29-1.64.16-.5.55-2.75.25-1.43.29-1.83.69-2.12a1.11,1.11,0,0,1,1.23-.14c.23.19.21.53.21.89a17.51,17.51,0,0,0,.34,2.27,7.36,7.36,0,0,0,1.79,3.43A9.61,9.61,0,0,0,120,79.92a9.27,9.27,0,0,0,4.19,1.34c.68.07.21,0,2.8-.09a2.29,2.29,0,0,0,1.53-.36s.66-.54.54-1-1.26-.52-2.54-1.1a7.37,7.37,0,0,1-2.6-2.26,13.67,13.67,0,0,1-2.34-4c-.48-1.17-.23-1-.72-2.16-.25-.61-.45-1-.31-1.38s.58-.57,1-.76a7.75,7.75,0,0,0,2.75-2.47,6.66,6.66,0,0,0,1.17-2.2,6.21,6.21,0,0,0,.13-2.95,4.52,4.52,0,0,0-1-2.26,4.4,4.4,0,0,0-3.91-1.37c-2.47.38-3.71,3-4.12,2.74s.21-1.38,1-3.22c.55-1.34,1-2.4,1.79-4.12a10.7,10.7,0,0,0,1.1-3,4.1,4.1,0,0,0-.69-3.3,3.28,3.28,0,0,0-1.92-1c-2.07-.28-3.62,1.75-3.91,2.13a12.32,12.32,0,0,0-1,1.92c-.37.76-.92,1.89-1.44,3.23a39.83,39.83,0,0,0-1.65,5.56A55.37,55.37,0,0,0,108.42,65c-.21,1.84,0,1-.28,7a17.09,17.09,0,0,0,.34,3.5,3.6,3.6,0,0,0,.83,2C109.39,77.61,110.31,78.55,111.16,78.27Z"/><g class="cls-2"><path class="cls-3" d="M114.47,66.5c-.24-.36.41-1.16,1.69-2.76l1.72-1.56a1.14,1.14,0,0,1,.82-.38.89.89,0,0,1,.6.44,1.34,1.34,0,0,1,.11.9,3.64,3.64,0,0,1-.21.93A3.87,3.87,0,0,1,118,65.6C116.78,66.55,114.81,67,114.47,66.5Z"/></g><path class="cls-1" d="M66.86,58.57c-.47-.19-.29-.76-1.07-1.4a3,3,0,0,0-1.89-.66,3.23,3.23,0,0,0-2.13,1.15,6.41,6.41,0,0,0-1.56,3.7c-.14.86,0,.73-.17,2a29,29,0,0,1-.66,3.21c-.5,2.12-.45,1.79-.57,2.38a18.52,18.52,0,0,0-.41,4,7.37,7.37,0,0,0,.33,2.3,4.17,4.17,0,0,0,1,1.72,2.78,2.78,0,0,0,1.56.91,1.91,1.91,0,0,0,1-.09,2.11,2.11,0,0,0,1.07-1.15,22.07,22.07,0,0,0,1.39-4.27c.49-2.09.86-3.27,1-3.7a14.45,14.45,0,0,1,1.15-2.87c.76-1.35,1-1.9,1.56-2.14s1.18-.27,1.48.08.15.73,0,1.32c-.33,1.34-.49,2-.74,3a14.64,14.64,0,0,0-.41,3.21,17.94,17.94,0,0,0,.08,3,5.68,5.68,0,0,0,.83,2.87c.23.33.92,1.3,1.8,1.24.71-.05,1.18-.74,1.56-1.32a9,9,0,0,0,1.24-3.45s.23-1.09,1.31-4.27c.86-2.53,2.6-6.13,3.45-5.92.43.11.52,1.12.58,1.73a9.83,9.83,0,0,1-.66,3.61,20.14,20.14,0,0,0-.82,3,8,8,0,0,0,.49,3.45,6.65,6.65,0,0,0,1.23,2.14,2.22,2.22,0,0,0,1.32.9A1.79,1.79,0,0,0,82.23,78a2.68,2.68,0,0,0,1.23-1.31,17.88,17.88,0,0,0,1.48-4c.14-.56.4-1.63.66-3,.05-.29.28-1.61.49-3.45a26.52,26.52,0,0,0,.25-3.37,7.53,7.53,0,0,0-.41-3.2,5.33,5.33,0,0,0-3-2.63,5.19,5.19,0,0,0-4.69.82c-.93.73-1.33,1.7-1.89,1.56-.34-.09-.35-.5-.82-1.15a5.22,5.22,0,0,0-4.85-2C68.59,56.79,67.78,58.92,66.86,58.57Z"/><path class="cls-1" d="M93,57.5a3.23,3.23,0,0,0-2.4.75,4.84,4.84,0,0,0-1.37,2.2,14.37,14.37,0,0,0-.9,3,27.59,27.59,0,0,0-.27,4.12c0,1,0,1.6,0,2.4a18.85,18.85,0,0,0,.34,3,9.59,9.59,0,0,0,.89,2.81A7.59,7.59,0,0,0,91,77.81c.51.43.86.61,1.24.55a1.2,1.2,0,0,0,.75-.48,1.93,1.93,0,0,0,.28-1.1c0-.53.16-1,.2-1.57A29.13,29.13,0,0,1,94.34,71c.33-1.42.4-1.48.82-3.23.32-1.31.47-1.91.62-2.74a12.75,12.75,0,0,0,.27-2.47A6.07,6.07,0,0,0,95.64,60C95.45,59.52,94.68,57.74,93,57.5Z"/><path class="cls-1" d="M93.51,56.47a3.17,3.17,0,0,0,1.44.41,3,3,0,0,0,1-.14,2.62,2.62,0,0,0,1.38-.89,2.58,2.58,0,0,0,.48-1.3,3.59,3.59,0,0,0-.35-2,4,4,0,0,0-2.26-2.2,2.61,2.61,0,0,0-3.91,2.13,2.57,2.57,0,0,0-.07,1.16,3.66,3.66,0,0,0,1.16,1.79A4.45,4.45,0,0,0,93.51,56.47Z"/><path class="cls-1" d="M101.82,78a1.92,1.92,0,0,0,.68-.55,2,2,0,0,0,.35-.82,24.12,24.12,0,0,0,0-3.71c0-.27,0-.57.06-1.17a48.23,48.23,0,0,1,.76-5.42,75.52,75.52,0,0,1,1.85-7.55A27.8,27.8,0,0,1,106.9,55c.09-.21.37-.8.82-1.79.63-1.39.51-1.15.69-1.51a11.31,11.31,0,0,0,.61-1.37,7.56,7.56,0,0,0,.28-1,4,4,0,0,0-1.37-3.64,3.49,3.49,0,0,0-2.61-.68c-1.3.25-2,1.36-3,3a20.22,20.22,0,0,0-1.65,3.5A44.05,44.05,0,0,0,97.9,61.48a45,45,0,0,0-.41,7.69,39.64,39.64,0,0,0,.62,5.55c.36,2,.69,3,1.51,3.37A2.73,2.73,0,0,0,101.82,78Z"/></svg>