<svg id="Layer_1" data-name="Layer 1" xmlns="http://www.w3.org/2000/svg" viewBox="0 0 106.22 100.92"><defs><style>.cls-1{fill:#e2cdb4;}.cls-2{fill:#f8e8cf;}.cls-3{fill:#bb9b6e;}</style></defs><title>milk</title><circle class="cls-1" cx="54.63" cy="51.58" r="38.1"/><ellipse class="cls-2" cx="57.92" cy="54.61" rx="4.97" ry="2.79"/><ellipse class="cls-2" cx="49.68" cy="57.18" rx="2.36" ry="3.61"/><ellipse class="cls-2" cx="56.18" cy="60.16" rx="4.14" ry="2.98"/><ellipse class="cls-2" cx="62.6" cy="59.45" rx="2.28" ry="3.7"/><ellipse class="cls-2" cx="67.27" cy="53.4" rx="4.37" ry="2.35"/><ellipse class="cls-2" cx="50.19" cy="51.53" rx="4.05" ry="1.87"/><ellipse class="cls-2" cx="69.1" cy="58.27" rx="4.22" ry="2.52"/><ellipse class="cls-2" cx="44.69" cy="51.26" rx="4.97" ry="2.79" transform="translate(-23.3 50.05) rotate(-47.9)"/><ellipse class="cls-2" cx="48.32" cy="43.42" rx="2.36" ry="3.61" transform="translate(-16.3 50.16) rotate(-47.9)"/><ellipse class="cls-2" cx="41.75" cy="46.25" rx="4.14" ry="2.98" transform="translate(-20.56 46.21) rotate(-47.9)"/><ellipse class="cls-2" cx="37.97" cy="51.49" rx="2.28" ry="3.7" transform="translate(-25.69 45.14) rotate(-47.9)"/><ellipse class="cls-2" cx="41.75" cy="58.27" rx="4.37" ry="2.35" transform="translate(-29.48 50.18) rotate(-47.9)"/><ellipse class="cls-2" cx="52.17" cy="47.58" rx="4.05" ry="1.87" transform="translate(-18.11 54.39) rotate(-47.9)"/><ellipse class="cls-2" cx="34.49" cy="57.1" rx="4.22" ry="2.52" transform="translate(-31 44.4) rotate(-47.9)"/><ellipse class="cls-2" cx="53.87" cy="46.41" rx="2.36" ry="3.61"/><ellipse class="cls-2" cx="60.37" cy="49.39" rx="4.14" ry="2.98"/><ellipse class="cls-2" cx="66.79" cy="48.68" rx="2.28" ry="3.7"/><ellipse class="cls-2" cx="76.53" cy="58.27" rx="2.52" ry="4.22" transform="translate(-19.62 55.64) rotate(-35.72)"/><path class="cls-3" d="M41,58.53c.61,0,3.28-1.16,1.89-1.16-.61,0-3.28,1.16-1.89,1.16Z"/><path class="cls-3" d="M56.47,62.06c1.64,0,2.24-2.07.27-2.07-1.63,0-2.24,2.07-.27,2.07Z"/><path class="cls-3" d="M69,58.52c1.19,0,3-1.79,1.09-1.79-1.19,0-3,1.79-1.09,1.79Z"/><path class="cls-3" d="M75.48,58.4c1.23,0,3-1.87,1.06-1.87-1.24,0-3,1.87-1.06,1.87Z"/><path class="cls-3" d="M60.67,49.74c1.61,0,2.26-2,.28-2-1.61,0-2.25,2-.28,2Z"/><path class="cls-3" d="M68.64,54c1,0,3.1-1.5,1.16-1.5-1,0-3.11,1.5-1.16,1.5Z"/><path class="cls-3" d="M57.14,54.92c.91,0,3.13-1.37,1.2-1.37-.91,0-3.13,1.37-1.2,1.37Z"/><path class="cls-3" d="M51.06,51.61c1.23,0,3-1.87,1.07-1.87-1.23,0-3,1.87-1.07,1.87Z"/></svg>